<svg width="12" height="12" viewBox="0 0 12 12" fill="none" xmlns="http://www.w3.org/2000/svg">
    <g clip-path="url(#clip0_26_17)">
        <path d="M10.9286 0.642857H1.07142C0.834371 0.642857 0.642853 0.834374 0.642853 1.07143V10.9286C0.642853 11.1656 0.834371 11.3571 1.07142 11.3571H10.9286C11.1656 11.3571 11.3571 11.1656 11.3571 10.9286V1.07143C11.3571 0.834374 11.1656 0.642857 10.9286 0.642857ZM10.3929 10.3929H1.60714V1.60714H10.3929V10.3929ZM5.73214 4.5H8.19642C8.25535 4.5 8.30357 4.45179 8.30357 4.39286V3.75C8.30357 3.69107 8.25535 3.64286 8.19642 3.64286H5.73214C5.67321 3.64286 5.625 3.69107 5.625 3.75V4.39286C5.625 4.45179 5.67321 4.5 5.73214 4.5ZM5.73214 6.42857H8.19642C8.25535 6.42857 8.30357 6.38036 8.30357 6.32143V5.67857C8.30357 5.61964 8.25535 5.57143 8.19642 5.57143H5.73214C5.67321 5.57143 5.625 5.61964 5.625 5.67857V6.32143C5.625 6.38036 5.67321 6.42857 5.73214 6.42857ZM5.73214 8.35714H8.19642C8.25535 8.35714 8.30357 8.30893 8.30357 8.25V7.60714C8.30357 7.54821 8.25535 7.5 8.19642 7.5H5.73214C5.67321 7.5 5.625 7.54821 5.625 7.60714V8.25C5.625 8.30893 5.67321 8.35714 5.73214 8.35714ZM3.69642 4.07143C3.69642 4.21351 3.75287 4.34977 3.85333 4.45024C3.9538 4.5507 4.09006 4.60714 4.23214 4.60714C4.37422 4.60714 4.51048 4.5507 4.61095 4.45024C4.71141 4.34977 4.76785 4.21351 4.76785 4.07143C4.76785 3.92935 4.71141 3.79309 4.61095 3.69262C4.51048 3.59215 4.37422 3.53571 4.23214 3.53571C4.09006 3.53571 3.9538 3.59215 3.85333 3.69262C3.75287 3.79309 3.69642 3.92935 3.69642 4.07143ZM3.69642 6C3.69642 6.14208 3.75287 6.27834 3.85333 6.37881C3.9538 6.47927 4.09006 6.53571 4.23214 6.53571C4.37422 6.53571 4.51048 6.47927 4.61095 6.37881C4.71141 6.27834 4.76785 6.14208 4.76785 6C4.76785 5.85792 4.71141 5.72166 4.61095 5.62119C4.51048 5.52073 4.37422 5.46429 4.23214 5.46429C4.09006 5.46429 3.9538 5.52073 3.85333 5.62119C3.75287 5.72166 3.69642 5.85792 3.69642 6ZM3.69642 7.92857C3.69642 8.07065 3.75287 8.20691 3.85333 8.30738C3.9538 8.40784 4.09006 8.46429 4.23214 8.46429C4.37422 8.46429 4.51048 8.40784 4.61095 8.30738C4.71141 8.20691 4.76785 8.07065 4.76785 7.92857C4.76785 7.78649 4.71141 7.65023 4.61095 7.54976C4.51048 7.4493 4.37422 7.39286 4.23214 7.39286C4.09006 7.39286 3.9538 7.4493 3.85333 7.54976C3.75287 7.65023 3.69642 7.78649 3.69642 7.92857Z"
              fill="#000"/>
    </g>
    <defs>
        <clipPath id="clip0_26_17">
            <rect width="12" height="12" fill="white"/>
        </clipPath>
    </defs>
</svg>
