<svg width="12" height="12" viewBox="0 0 12 12" fill="none" xmlns="http://www.w3.org/2000/svg">
<path d="M10.7813 5.67589L5.72144 1.28437C5.6826 1.25089 5.63305 1.23214 5.58082 1.23214H4.39555C4.29644 1.23214 4.25091 1.35536 4.32591 1.41964L9.01608 5.49107H1.17858C1.11966 5.49107 1.07144 5.53929 1.07144 5.59821V6.40179C1.07144 6.46071 1.11966 6.50893 1.17858 6.50893H9.01474L4.32457 10.5804C4.24957 10.646 4.2951 10.7679 4.39421 10.7679H5.61966C5.6451 10.7679 5.67055 10.7585 5.6893 10.7411L10.7813 6.32411C10.8276 6.28379 10.8648 6.23399 10.8903 6.17808C10.9158 6.12217 10.9289 6.06144 10.9289 6C10.9289 5.93856 10.9158 5.87783 10.8903 5.82192C10.8648 5.76601 10.8276 5.71621 10.7813 5.67589Z" fill="black"/>
</svg>
