<svg width="12" height="12" viewBox="0 0 12 12" fill="none" xmlns="http://www.w3.org/2000/svg">
<g clip-path="url(#clip0_42_2)">
<path d="M11.5714 1.29911H8.50714C7.84955 1.29911 7.2067 1.48795 6.65357 1.8442L6 2.26339L5.34643 1.8442C4.79385 1.48801 4.15028 1.29876 3.49286 1.29911H0.428571C0.191518 1.29911 0 1.49062 0 1.72768V9.33482C0 9.57188 0.191518 9.76339 0.428571 9.76339H3.49286C4.15045 9.76339 4.7933 9.95223 5.34643 10.3085L5.94107 10.6915C5.95848 10.7022 5.97857 10.7089 5.99866 10.7089C6.01875 10.7089 6.03884 10.7036 6.05625 10.6915L6.65089 10.3085C7.20536 9.95223 7.84955 9.76339 8.50714 9.76339H11.5714C11.8085 9.76339 12 9.57188 12 9.33482V1.72768C12 1.49062 11.8085 1.29911 11.5714 1.29911ZM3.49286 8.79911H0.964286V2.26339H3.49286C3.96696 2.26339 4.42768 2.39866 4.82545 2.65446L5.47902 3.07366L5.57143 3.13393V9.32143C4.93393 8.97857 4.22143 8.79911 3.49286 8.79911ZM11.0357 8.79911H8.50714C7.77857 8.79911 7.06607 8.97857 6.42857 9.32143V3.13393L6.52098 3.07366L7.17455 2.65446C7.57232 2.39866 8.03304 2.26339 8.50714 2.26339H11.0357V8.79911ZM4.45848 3.97768H1.97009C1.91786 3.97768 1.875 4.02321 1.875 4.07813V4.6808C1.875 4.73571 1.91786 4.78125 1.97009 4.78125H4.45714C4.50937 4.78125 4.55223 4.73571 4.55223 4.6808V4.07813C4.55357 4.02321 4.51071 3.97768 4.45848 3.97768ZM7.44643 4.07813V4.6808C7.44643 4.73571 7.48929 4.78125 7.54152 4.78125H10.0286C10.0808 4.78125 10.1237 4.73571 10.1237 4.6808V4.07813C10.1237 4.02321 10.0808 3.97768 10.0286 3.97768H7.54152C7.48929 3.97768 7.44643 4.02321 7.44643 4.07813ZM4.45848 5.85268H1.97009C1.91786 5.85268 1.875 5.89821 1.875 5.95313V6.5558C1.875 6.61071 1.91786 6.65625 1.97009 6.65625H4.45714C4.50937 6.65625 4.55223 6.61071 4.55223 6.5558V5.95313C4.55357 5.89821 4.51071 5.85268 4.45848 5.85268ZM10.0299 5.85268H7.54152C7.48929 5.85268 7.44643 5.89821 7.44643 5.95313V6.5558C7.44643 6.61071 7.48929 6.65625 7.54152 6.65625H10.0286C10.0808 6.65625 10.1237 6.61071 10.1237 6.5558V5.95313C10.125 5.89821 10.0821 5.85268 10.0299 5.85268Z" fill="black"/>
</g>
<defs>
<clipPath id="clip0_42_2">
<rect width="12" height="12" fill="white"/>
</clipPath>
</defs>
</svg>
