<svg width="12" height="12" viewBox="0 0 12 12" fill="none" xmlns="http://www.w3.org/2000/svg">
<g clip-path="url(#clip0_43_5)">
<path d="M10.9286 1.60714H8.67857V0.749999C8.67857 0.691071 8.63035 0.642857 8.57142 0.642857H7.82142C7.7625 0.642857 7.71428 0.691071 7.71428 0.749999V1.60714H4.28571V0.749999C4.28571 0.691071 4.2375 0.642857 4.17857 0.642857H3.42857C3.36964 0.642857 3.32142 0.691071 3.32142 0.749999V1.60714H1.07142C0.834371 1.60714 0.642853 1.79866 0.642853 2.03571V10.9286C0.642853 11.1656 0.834371 11.3571 1.07142 11.3571H10.9286C11.1656 11.3571 11.3571 11.1656 11.3571 10.9286V2.03571C11.3571 1.79866 11.1656 1.60714 10.9286 1.60714ZM10.3929 10.3929H1.60714V5.30357H10.3929V10.3929ZM1.60714 4.39286V2.57143H3.32142V3.21429C3.32142 3.27321 3.36964 3.32143 3.42857 3.32143H4.17857C4.2375 3.32143 4.28571 3.27321 4.28571 3.21429V2.57143H7.71428V3.21429C7.71428 3.27321 7.7625 3.32143 7.82142 3.32143H8.57142C8.63035 3.32143 8.67857 3.27321 8.67857 3.21429V2.57143H10.3929V4.39286H1.60714Z" fill="black"/>
</g>
<defs>
<clipPath id="clip0_43_5">
<rect width="12" height="12" fill="white"/>
</clipPath>
</defs>
</svg>
