<svg width="12" height="12" viewBox="0 0 12 12" fill="none" xmlns="http://www.w3.org/2000/svg">
    <g clip-path="url(#clip0_26_4)">
        <path fill-rule="evenodd" clip-rule="evenodd"
              d="M6 0C9.31339 0 12 2.68661 12 6C12 9.31339 9.31339 12 6 12C2.68661 12 0 9.31339 0 6C0 2.68661 2.68661 0 6 0ZM6 1.01786C3.24911 1.01786 1.01786 3.24911 1.01786 6C1.01786 8.75089 3.24911 10.9821 6 10.9821C8.75089 10.9821 10.9821 8.75089 10.9821 6C10.9821 3.24911 8.75089 1.01786 6 1.01786ZM7.71442 3.68076C7.71482 3.68076 7.71509 3.68089 7.71562 3.68156L8.31857 4.28437C8.3189 4.28471 8.31913 4.28513 8.31924 4.28558C8.31933 4.28589 8.31933 4.28621 8.31924 4.28652C8.31924 4.28679 8.31911 4.28705 8.31857 4.28759L6.60603 6L8.31857 7.71241C8.31883 7.71264 8.31906 7.71292 8.31924 7.71321V7.71348C8.31933 7.71379 8.31933 7.71411 8.31924 7.71442C8.31924 7.71482 8.31911 7.71509 8.31857 7.71562L7.71562 8.31857C7.71529 8.3189 7.71487 8.31913 7.71442 8.31924C7.71411 8.31933 7.71379 8.31933 7.71348 8.31924C7.71321 8.31924 7.71295 8.31911 7.71241 8.31857L6 6.60603L4.28759 8.31857C4.28705 8.31911 4.28679 8.31924 4.28652 8.31924C4.28621 8.31933 4.28589 8.31933 4.28558 8.31924C4.28518 8.31924 4.28491 8.31911 4.28437 8.31857L3.68143 7.71562C3.6811 7.71529 3.68087 7.71487 3.68076 7.71442C3.68067 7.71411 3.68067 7.71379 3.68076 7.71348C3.68076 7.71321 3.68089 7.71295 3.68156 7.71241L5.39397 6L3.68143 4.28759C3.68117 4.28736 3.68094 4.28708 3.68076 4.28679L3.68063 4.28652C3.68053 4.28621 3.68053 4.28589 3.68063 4.28558C3.68063 4.28518 3.68076 4.28491 3.68129 4.28437L4.28424 3.68143C4.28458 3.6811 4.28499 3.68087 4.28545 3.68076C4.28575 3.68067 4.28608 3.68067 4.28638 3.68076C4.28665 3.68076 4.28692 3.68089 4.28746 3.68156L6 5.39397L7.71241 3.68156C7.71295 3.68089 7.71321 3.68076 7.71348 3.68076C7.71379 3.68067 7.71411 3.68067 7.71442 3.68076Z"
              fill="#000"/>
    </g>
    <defs>
        <clipPath id="clip0_26_4">
            <rect width="12" height="12" fill="white"/>
        </clipPath>
    </defs>
</svg>
