<svg width="12" height="12" viewBox="0 0 12 12" fill="none" xmlns="http://www.w3.org/2000/svg">
    <g clip-path="url(#clip0_26_6)">
        <path fill-rule="evenodd" clip-rule="evenodd"
              d="M10.9286 0.64286C11.1656 0.64286 11.3571 0.834378 11.3571 1.07143V10.9286C11.3571 11.1656 11.1656 11.3571 10.9286 11.3571H1.07142C0.834371 11.3571 0.642853 11.1656 0.642853 10.9286V1.07143C0.642853 0.834378 0.834371 0.64286 1.07142 0.64286H10.9286ZM10.3929 1.60715H1.60714V10.3929H10.3929V1.60715ZM7.71442 3.68076C7.71482 3.68076 7.71508 3.6809 7.71562 3.68157L8.31857 4.28438C8.31889 4.28471 8.31912 4.28513 8.31924 4.28558C8.31933 4.28589 8.31933 4.28622 8.31924 4.28652C8.31924 4.28679 8.3191 4.28706 8.31857 4.28759L6.60602 6L8.31857 7.71241C8.31883 7.71265 8.31905 7.71292 8.31924 7.71322V7.71349C8.31933 7.71379 8.31933 7.71412 8.31924 7.71442C8.31924 7.71482 8.3191 7.71509 8.31857 7.71563L7.71562 8.31857C7.71528 8.3189 7.71487 8.31913 7.71442 8.31924C7.71411 8.31934 7.71378 8.31934 7.71348 8.31924C7.71321 8.31924 7.71294 8.31911 7.71241 8.31857L6 6.60603L4.28759 8.31857C4.28705 8.31911 4.28678 8.31924 4.28651 8.31924C4.28621 8.31934 4.28588 8.31934 4.28558 8.31924C4.28517 8.31924 4.28491 8.31911 4.28437 8.31857L3.68142 7.71563C3.6811 7.71529 3.68087 7.71488 3.68075 7.71442C3.68066 7.71412 3.68066 7.71379 3.68075 7.71349C3.68075 7.71322 3.68089 7.71295 3.68156 7.71241L5.39397 6L3.68142 4.28759C3.68116 4.28736 3.68094 4.28709 3.68075 4.28679L3.68062 4.28652C3.68053 4.28622 3.68053 4.28589 3.68062 4.28558C3.68062 4.28518 3.68075 4.28491 3.68129 4.28438L4.28424 3.68143C4.28457 3.68111 4.28499 3.68088 4.28544 3.68076C4.28575 3.68067 4.28607 3.68067 4.28638 3.68076C4.28665 3.68076 4.28692 3.6809 4.28745 3.68157L6 5.39398L7.71241 3.68157C7.71294 3.6809 7.71321 3.68076 7.71348 3.68076C7.71378 3.68067 7.71411 3.68067 7.71442 3.68076Z"
              fill="#000"/>
    </g>
    <defs>
        <clipPath id="clip0_26_6">
            <rect width="12" height="12" fill="white"/>
        </clipPath>
    </defs>
</svg>
