<svg width="12" height="12" viewBox="0 0 12 12" fill="none" xmlns="http://www.w3.org/2000/svg">
    <path fill-rule="evenodd" clip-rule="evenodd"
          d="M9.85526 1.37023C9.85553 1.37023 9.8558 1.37049 9.85633 1.37103L10.629 2.1438C10.6295 2.1442 10.6296 2.14447 10.6298 2.14487C10.6298 2.14513 10.6298 2.14541 10.6298 2.14567C10.6298 2.14607 10.6295 2.14634 10.629 2.14688L6.77584 6L10.629 9.85313C10.6295 9.85366 10.6296 9.85393 10.6298 9.85433C10.6299 9.85464 10.6299 9.85496 10.6298 9.85527C10.6298 9.85554 10.6295 9.8558 10.629 9.85634L9.8562 10.629C9.8558 10.6295 9.85553 10.6296 9.85526 10.6298C9.85496 10.6299 9.85463 10.6299 9.85432 10.6298C9.85392 10.6298 9.85365 10.6295 9.85312 10.629L5.99999 6.77585L2.14687 10.629C2.14633 10.6295 2.14607 10.6296 2.14566 10.6298C2.14536 10.6299 2.14503 10.6299 2.14473 10.6298C2.14446 10.6298 2.14419 10.6295 2.14366 10.629L1.37102 9.85621C1.37049 9.8558 1.37035 9.85554 1.37022 9.85527C1.37012 9.85496 1.37012 9.85464 1.37022 9.85433C1.37022 9.85393 1.37049 9.85366 1.37102 9.85313L5.22415 6L1.37102 2.14688C1.37049 2.14634 1.37035 2.14607 1.37022 2.14567C1.37012 2.14537 1.37012 2.14504 1.37022 2.14473C1.37022 2.14447 1.37049 2.1442 1.37102 2.14366L2.14379 1.37103C2.14419 1.37049 2.14446 1.37036 2.14473 1.37023C2.14503 1.37013 2.14536 1.37013 2.14566 1.37023C2.14607 1.37023 2.14633 1.37049 2.14687 1.37103L5.99999 5.22415L9.85312 1.37103C9.85365 1.37049 9.85392 1.37036 9.85432 1.37023C9.85463 1.37013 9.85496 1.37013 9.85526 1.37023Z"
          fill="#000"/>
</svg>
