<svg width="12" height="12" viewBox="0 0 12 12" fill="none" xmlns="http://www.w3.org/2000/svg">
<g clip-path="url(#clip0_55_2)">
<path d="M10.2857 0H3.10713C3.04821 0 2.99999 0.0482143 2.99999 0.107143V0.857143C2.99999 0.916071 3.04821 0.964286 3.10713 0.964286H9.74999V10.1786C9.74999 10.2375 9.79821 10.2857 9.85713 10.2857H10.6071C10.6661 10.2857 10.7143 10.2375 10.7143 10.1786V0.428571C10.7143 0.191518 10.5228 0 10.2857 0ZM8.57142 1.71429H1.71428C1.47722 1.71429 1.28571 1.9058 1.28571 2.14286V9.25045C1.28571 9.36429 1.33124 9.47277 1.4116 9.55312L3.73258 11.8741C3.76205 11.9036 3.79553 11.9277 3.83169 11.9478V11.9732H3.88794C3.93481 11.9906 3.98437 12 4.03526 12H8.57142C8.80847 12 8.99999 11.8085 8.99999 11.5714V2.14286C8.99999 1.9058 8.80847 1.71429 8.57142 1.71429ZM3.83035 10.6098L2.67722 9.45536H3.83035V10.6098ZM8.03571 11.0357H4.68749V9.13393C4.68749 8.83795 4.44776 8.59821 4.15178 8.59821H2.24999V2.67857H8.03571V11.0357Z" fill="black"/>
</g>
<defs>
<clipPath id="clip0_55_2">
<rect width="12" height="12" fill="white"/>
</clipPath>
</defs>
</svg>
