<svg width="12" height="12" viewBox="0 0 12 12" fill="none" xmlns="http://www.w3.org/2000/svg">
    <path d="M2.79778 6L6.35224 1.45848C6.40715 1.38884 6.3576 1.28571 6.26787 1.28571H5.2326C5.16698 1.28571 5.10403 1.31652 5.06385 1.36741L1.64465 5.73616C1.58544 5.81161 1.55325 5.90475 1.55325 6.00067C1.55325 6.09658 1.58544 6.18972 1.64465 6.26518L5.06385 10.6326C5.10403 10.6848 5.16698 10.7143 5.2326 10.7143H6.26787C6.3576 10.7143 6.40715 10.6112 6.35224 10.5415L2.79778 6ZM6.86921 6L10.4237 1.45848C10.4786 1.38884 10.429 1.28571 10.3393 1.28571H9.30403C9.2384 1.28571 9.17546 1.31652 9.13528 1.36741L5.71608 5.73616C5.65687 5.81161 5.62468 5.90475 5.62468 6.00067C5.62468 6.09658 5.65687 6.18972 5.71608 6.26518L9.13528 10.6326C9.17546 10.6848 9.2384 10.7143 9.30403 10.7143H10.3393C10.429 10.7143 10.4786 10.6112 10.4237 10.5415L6.86921 6Z"
          fill="#000"/>
</svg>
