<svg width="12" height="12" viewBox="0 0 12 12" fill="none" xmlns="http://www.w3.org/2000/svg">
    <path d="M6.28392 5.73616L2.86472 1.36741C2.82454 1.31518 2.7616 1.28571 2.69597 1.28571H1.6607C1.57097 1.28571 1.52142 1.38884 1.57633 1.45848L5.13079 6L1.57633 10.5415C1.56396 10.5573 1.55629 10.5763 1.55419 10.5962C1.55209 10.6162 1.55564 10.6363 1.56444 10.6543C1.57324 10.6723 1.58694 10.6875 1.60396 10.6981C1.62098 10.7087 1.64065 10.7143 1.6607 10.7143H2.69597C2.7616 10.7143 2.82454 10.6835 2.86472 10.6326L6.28392 6.26518C6.40579 6.10848 6.40579 5.89152 6.28392 5.73616ZM10.3553 5.73616L6.93615 1.36741C6.89597 1.31518 6.83303 1.28571 6.7674 1.28571H5.73213C5.6424 1.28571 5.59285 1.38884 5.64776 1.45848L9.20222 6L5.64776 10.5415C5.63539 10.5573 5.62772 10.5763 5.62562 10.5962C5.62351 10.6162 5.62707 10.6363 5.63587 10.6543C5.64467 10.6723 5.65837 10.6875 5.67539 10.6981C5.69241 10.7087 5.71208 10.7143 5.73213 10.7143H6.7674C6.83303 10.7143 6.89597 10.6835 6.93615 10.6326L10.3553 6.26518C10.4772 6.10848 10.4772 5.89152 10.3553 5.73616Z"
          fill="#00"/>
</svg>
