<svg width="12" height="12" viewBox="0 0 12 12" fill="none" xmlns="http://www.w3.org/2000/svg">
<path d="M11.7616 5.65446C10.492 2.97991 8.57275 1.63393 5.99999 1.63393C3.42588 1.63393 1.50802 2.97991 0.238379 5.6558C0.187453 5.76364 0.161041 5.88141 0.161041 6.00067C0.161041 6.11993 0.187453 6.2377 0.238379 6.34554C1.50802 9.02009 3.42722 10.3661 5.99999 10.3661C8.57409 10.3661 10.492 9.02009 11.7616 6.3442C11.8647 6.12723 11.8647 5.87545 11.7616 5.65446ZM5.99999 9.40179C3.83972 9.40179 2.25802 8.30625 1.1424 6C2.25802 3.69375 3.83972 2.59821 5.99999 2.59821C8.16025 2.59821 9.74195 3.69375 10.8576 6C9.74329 8.30625 8.16159 9.40179 5.99999 9.40179ZM5.94641 3.64286C4.64463 3.64286 3.58927 4.69821 3.58927 6C3.58927 7.30179 4.64463 8.35714 5.94641 8.35714C7.2482 8.35714 8.30356 7.30179 8.30356 6C8.30356 4.69821 7.2482 3.64286 5.94641 3.64286ZM5.94641 7.5C5.1174 7.5 4.44641 6.82902 4.44641 6C4.44641 5.17098 5.1174 4.5 5.94641 4.5C6.77543 4.5 7.44641 5.17098 7.44641 6C7.44641 6.82902 6.77543 7.5 5.94641 7.5Z" fill="black"/>
</svg>
