<svg xmlns="http://www.w3.org/2000/svg" width="20" height="20" viewBox="0 0 20 20" fill="none">
    <g clip-path="url(#clip0_11060_132577)">
        <mask id="mask0_11060_132577" style="mask-type:alpha" maskUnits="userSpaceOnUse" x="1" y="4" width="18"
              height="12">
            <path d="M16.8001 4H3.2001C2.31644 4 1.6001 4.71634 1.6001 5.6V14.4C1.6001 15.2837 2.31644 16 3.2001 16H16.8001C17.6838 16 18.4001 15.2837 18.4001 14.4V5.6C18.4001 4.71634 17.6838 4 16.8001 4Z"
                  fill="white"/>
        </mask>
        <g mask="url(#mask0_11060_132577)">
            <path d="M16.8001 4H3.2001C2.31644 4 1.6001 4.71634 1.6001 5.6V14.4C1.6001 15.2837 2.31644 16 3.2001 16H16.8001C17.6838 16 18.4001 15.2837 18.4001 14.4V5.6C18.4001 4.71634 17.6838 4 16.8001 4Z"
                  fill="#0034A9"/>
            <path fill-rule="evenodd" clip-rule="evenodd" d="M1.6001 12H18.4001V16H1.6001V12Z" fill="#D7280F"/>
            <path fill-rule="evenodd" clip-rule="evenodd" d="M1.6001 4H18.4001V8H1.6001V4Z" fill="white"/>
        </g>
    </g>
    <defs>
        <clipPath id="clip0_11060_132577">
            <rect width="16.8" height="12" fill="white" transform="translate(1.6001 4)"/>
        </clipPath>
    </defs>
</svg>
