<svg xmlns="http://www.w3.org/2000/svg" width="24" height="24" viewBox="0 0 20 20" fill="none">
    <g clip-path="url(#clip0_11060_132581)">
        <mask id="mask0_11060_132581" style="mask-type:alpha" maskUnits="userSpaceOnUse" x="1" y="4" width="18"
              height="12">
            <path d="M16.8001 4H3.2001C2.31644 4 1.6001 4.71634 1.6001 5.6V14.4C1.6001 15.2837 2.31644 16 3.2001 16H16.8001C17.6838 16 18.4001 15.2837 18.4001 14.4V5.6C18.4001 4.71634 17.6838 4 16.8001 4Z"
                  fill="white"/>
        </mask>
        <g mask="url(#mask0_11060_132581)">
            <path d="M16.8001 4H3.2001C2.31644 4 1.6001 4.71634 1.6001 5.6V14.4C1.6001 15.2837 2.31644 16 3.2001 16H16.8001C17.6838 16 18.4001 15.2837 18.4001 14.4V5.6C18.4001 4.71634 17.6838 4 16.8001 4Z"
                  fill="white"/>
            <path fill-rule="evenodd" clip-rule="evenodd" d="M1.6001 4H8.8001V9.6H1.6001V4Z" fill="#444379"/>
            <path fill-rule="evenodd" clip-rule="evenodd"
                  d="M2.3999 4.79999V5.59999H3.1999V4.79999H2.3999ZM3.9999 4.79999V5.59999H4.7999V4.79999H3.9999ZM5.5999 4.79999V5.59999H6.3999V4.79999H5.5999ZM7.1999 4.79999V5.59999H7.9999V4.79999H7.1999ZM6.3999 5.59999V6.39999H7.1999V5.59999H6.3999ZM4.7999 5.59999V6.39999H5.5999V5.59999H4.7999ZM3.1999 5.59999V6.39999H3.9999V5.59999H3.1999ZM2.3999 6.39999V7.19999H3.1999V6.39999H2.3999ZM3.9999 6.39999V7.19999H4.7999V6.39999H3.9999ZM5.5999 6.39999V7.19999H6.3999V6.39999H5.5999ZM7.1999 6.39999V7.19999H7.9999V6.39999H7.1999ZM2.3999 7.99999V8.79999H3.1999V7.99999H2.3999ZM3.9999 7.99999V8.79999H4.7999V7.99999H3.9999ZM5.5999 7.99999V8.79999H6.3999V7.99999H5.5999ZM7.1999 7.99999V8.79999H7.9999V7.99999H7.1999ZM6.3999 7.19999V7.99999H7.1999V7.19999H6.3999ZM4.7999 7.19999V7.99999H5.5999V7.19999H4.7999ZM3.1999 7.19999V7.99999H3.9999V7.19999H3.1999Z"
                  fill="#A7B6E7"/>
            <path fill-rule="evenodd" clip-rule="evenodd"
                  d="M8.8001 4V4.8H18.4001V4H8.8001ZM8.8001 5.6V6.4H18.4001V5.6H8.8001ZM8.8001 7.2V8H18.4001V7.2H8.8001ZM8.8001 8.8V9.6H18.4001V8.8H8.8001ZM1.6001 10.4V11.2H18.4001V10.4H1.6001ZM1.6001 12V12.8H18.4001V12H1.6001ZM1.6001 13.6V14.4H18.4001V13.6H1.6001ZM1.6001 15.2V16H18.4001V15.2H1.6001Z"
                  fill="#ED4C49"/>
        </g>
    </g>
    <defs>
        <clipPath id="clip0_11060_132581">
            <rect width="16.8" height="12" fill="white" transform="translate(1.6001 4)"/>
        </clipPath>
    </defs>
</svg>
