<svg width="12" height="12" viewBox="0 0 12 12" fill="none" xmlns="http://www.w3.org/2000/svg">
    <g clip-path="url(#clip0_26_15)">
        <path d="M11.8192 5.90625L6.64419 0.73393L6.29731 0.387055C6.21828 0.308542 6.1114 0.264477 5.99999 0.264477C5.88859 0.264477 5.78171 0.308542 5.70267 0.387055L0.180796 5.90625C0.0998112 5.98692 0.0358073 6.083 -0.00743745 6.18881C-0.0506822 6.29462 -0.0722913 6.40802 -0.0709894 6.52232C-0.0656323 6.99375 0.326778 7.37009 0.798207 7.37009H1.3674V11.7321H10.6326V7.37009H11.2138C11.4428 7.37009 11.6585 7.28036 11.8205 7.11831C11.9003 7.03877 11.9635 6.94419 12.0065 6.84005C12.0495 6.73591 12.0714 6.62427 12.071 6.51161C12.071 6.28393 11.9812 6.0683 11.8192 5.90625ZM6.74999 10.7679H5.24999V8.03572H6.74999V10.7679ZM9.6683 6.4058V10.7679H7.60714V7.71429C7.60714 7.4183 7.3674 7.17857 7.07142 7.17857H4.92856C4.63258 7.17857 4.39285 7.4183 4.39285 7.71429V10.7679H2.33169V6.4058H1.04597L6.00133 1.45447L6.31071 1.76384L10.9553 6.4058H9.6683Z"
              fill="#000"/>
    </g>
    <defs>
        <clipPath id="clip0_26_15">
            <rect width="12" height="12" fill="white"/>
        </clipPath>
    </defs>
</svg>
