<svg width="12" height="12" viewBox="0 0 12 12" fill="none" xmlns="http://www.w3.org/2000/svg">
    <g clip-path="url(#clip0_28_28)">
        <path d="M9.8689 5.19654C9.85535 5.4712 9.64697 5.81032 9.31116 6.13624V10.4312C9.31078 10.5418 9.26721 10.6355 9.19359 10.7088C9.11962 10.7805 9.02367 10.823 8.91087 10.8237H1.91151C1.79946 10.823 1.70313 10.7805 1.62916 10.7088C1.55555 10.6355 1.51235 10.5418 1.51198 10.4312V3.56763C1.51235 3.4574 1.55555 3.36328 1.62916 3.29004C1.70313 3.21825 1.79946 3.17578 1.91151 3.17505H5.62891C5.92957 2.78027 6.28003 2.37597 6.67701 2.00538C6.67884 2.00318 6.68032 2.00097 6.68215 1.9988H1.91151C1.47206 1.99842 1.06814 2.1753 0.780655 2.45803C0.491718 2.74076 0.31153 3.13626 0.311905 3.56765V10.4312C0.31153 10.8626 0.491718 11.2588 0.780655 11.5408C1.06812 11.8235 1.47206 12 1.91151 12H8.91091C9.35109 12 9.75504 11.8235 10.0425 11.5408C10.3307 11.2588 10.5112 10.8625 10.5109 10.4311V4.7688C10.5109 4.7688 10.5079 4.76515 10.5032 4.76147C10.3212 4.91749 10.1091 5.06615 9.8689 5.19654Z"
              fill="#000"/>
        <path d="M11.6732 0C11.6732 0 11.3055 0.549328 8.90395 1.36193C6.45508 2.19068 4.94775 5.56202 4.94775 5.56202C4.58484 6.2527 3.15037 9.12232 3.15037 9.12232C2.75524 9.86353 3.47922 10.3015 3.90403 9.53613C4.71811 8.06688 5.24362 6.72436 6.48143 6.68627C8.28722 6.63061 9.52207 5.05371 9.13352 5.12695C8.62228 5.34961 7.4951 5.1438 8.15904 5.04127C9.75279 4.91346 10.735 3.71557 10.4149 3.63429C9.84984 3.85181 9.32285 3.64528 9.21958 3.58301C12.0325 3.24096 11.6732 0 11.6732 0Z"
              fill="#000"/>
    </g>
    <defs>
        <clipPath id="clip0_28_28">
            <rect width="12" height="12" fill="white"/>
        </clipPath>
    </defs>
</svg>
