<svg width="12" height="12" viewBox="0 0 12 12" fill="none" xmlns="http://www.w3.org/2000/svg">
    <g clip-path="url(#clip0_26_19)">
        <path d="M11.5714 1.28571H0.428571C0.191518 1.28571 0 1.47723 0 1.71428V10.2857C0 10.5228 0.191518 10.7143 0.428571 10.7143H11.5714C11.8085 10.7143 12 10.5228 12 10.2857V1.71428C12 1.47723 11.8085 1.28571 11.5714 1.28571ZM11.0357 9.75H0.964286V2.25H11.0357V9.75ZM7.31652 5.51786H8.9692C8.98661 5.51786 9 5.46964 9 5.41071V4.76786C9 4.70893 8.98661 4.66071 8.9692 4.66071H7.31652C7.29911 4.66071 7.28571 4.70893 7.28571 4.76786V5.41071C7.28571 5.46964 7.29911 5.51786 7.31652 5.51786ZM7.3808 7.44643H9.86786C9.92009 7.44643 9.96295 7.39821 9.96295 7.33928V6.69643C9.96295 6.6375 9.92009 6.58928 9.86786 6.58928H7.3808C7.32857 6.58928 7.28571 6.6375 7.28571 6.69643V7.33928C7.28571 7.39821 7.32857 7.44643 7.3808 7.44643ZM2.14286 8.15625H2.7308C2.78705 8.15625 2.83259 8.11205 2.83661 8.0558C2.8875 7.37946 3.45268 6.84375 4.13839 6.84375C4.82411 6.84375 5.38929 7.37946 5.44018 8.0558C5.4442 8.11205 5.48973 8.15625 5.54598 8.15625H6.13393C6.14846 8.15627 6.16285 8.15333 6.17621 8.14761C6.18957 8.1419 6.20163 8.13352 6.21165 8.123C6.22167 8.11247 6.22945 8.10002 6.23451 8.0864C6.23956 8.07277 6.2418 8.05826 6.24107 8.04375C6.20357 7.32991 5.8125 6.70848 5.24196 6.35491C5.49357 6.07834 5.63259 5.71764 5.6317 5.34375C5.6317 4.51473 4.96339 3.84375 4.13973 3.84375C3.31607 3.84375 2.64777 4.51473 2.64777 5.34375C2.64777 5.73348 2.79509 6.08705 3.0375 6.35491C2.74705 6.5349 2.50447 6.78251 2.33049 7.0766C2.15651 7.37069 2.05629 7.70252 2.03839 8.04375C2.03304 8.10536 2.08125 8.15625 2.14286 8.15625ZM4.13839 4.64732C4.52009 4.64732 4.8308 4.95937 4.8308 5.34375C4.8308 5.72812 4.52009 6.04018 4.13839 6.04018C3.7567 6.04018 3.44598 5.72812 3.44598 5.34375C3.44598 4.95937 3.7567 4.64732 4.13839 4.64732Z"
              fill="#000"/>
    </g>
    <defs>
        <clipPath id="clip0_26_19">
            <rect width="12" height="12" fill="white"/>
        </clipPath>
    </defs>
</svg>
