<svg width="12" height="12" viewBox="0 0 12 12" fill="none" xmlns="http://www.w3.org/2000/svg">
    <g clip-path="url(#clip0_29_33)">
        <path d="M10.6406 9.36964C10.388 8.77121 10.0214 8.22764 9.56117 7.7692C9.10238 7.30943 8.55889 6.94286 7.96073 6.68973C7.95537 6.68705 7.95001 6.68571 7.94465 6.68304C8.77903 6.08036 9.32144 5.09866 9.32144 3.99107C9.32144 2.15625 7.83483 0.669643 6.00001 0.669643C4.16519 0.669643 2.67858 2.15625 2.67858 3.99107C2.67858 5.09866 3.22099 6.08036 4.05537 6.68438C4.05001 6.68705 4.04465 6.68839 4.0393 6.69107C3.4393 6.9442 2.9009 7.30714 2.43885 7.77054C1.97909 8.22933 1.61252 8.77282 1.35939 9.37098C1.11071 9.95659 0.976595 10.5844 0.964297 11.2205C0.96394 11.2348 0.966447 11.2491 0.971671 11.2624C0.976895 11.2757 0.984731 11.2878 0.994716 11.298C1.0047 11.3083 1.01663 11.3164 1.02981 11.322C1.04299 11.3275 1.05714 11.3304 1.07144 11.3304H1.87501C1.93394 11.3304 1.98082 11.2835 1.98215 11.2259C2.00894 10.192 2.42412 9.22366 3.15805 8.48973C3.91742 7.73036 4.9259 7.3125 6.00001 7.3125C7.07412 7.3125 8.0826 7.73036 8.84198 8.48973C9.5759 9.22366 9.99108 10.192 10.0179 11.2259C10.0192 11.2848 10.0661 11.3304 10.125 11.3304H10.9286C10.9429 11.3304 10.957 11.3275 10.9702 11.322C10.9834 11.3164 10.9953 11.3083 11.0053 11.298C11.0153 11.2878 11.0231 11.2757 11.0284 11.2624C11.0336 11.2491 11.0361 11.2348 11.0357 11.2205C11.0223 10.5804 10.8897 9.95759 10.6406 9.36964ZM6.00001 6.29464C5.38528 6.29464 4.80671 6.05491 4.37144 5.61964C3.93617 5.18438 3.69644 4.6058 3.69644 3.99107C3.69644 3.37634 3.93617 2.79777 4.37144 2.3625C4.80671 1.92723 5.38528 1.6875 6.00001 1.6875C6.61474 1.6875 7.19332 1.92723 7.62858 2.3625C8.06385 2.79777 8.30358 3.37634 8.30358 3.99107C8.30358 4.6058 8.06385 5.18438 7.62858 5.61964C7.19332 6.05491 6.61474 6.29464 6.00001 6.29464Z"
              fill="#000"/>
    </g>
    <defs>
        <clipPath id="clip0_29_33">
            <rect width="12" height="12" fill="white"/>
        </clipPath>
    </defs>
</svg>
